<?xml version="1.0" encoding="utf-8"?>
<!-- Generator: Adobe Illustrator 16.0.0, SVG Export Plug-In . SVG Version: 6.00 Build 0)  -->
<!DOCTYPE svg PUBLIC "-//W3C//DTD SVG 1.1//EN" "http://www.w3.org/Graphics/SVG/1.1/DTD/svg11.dtd">
<svg version="1.1" id="Layer_1" xmlns="http://www.w3.org/2000/svg" xmlns:xlink="http://www.w3.org/1999/xlink" x="0px" y="0px"
	 width="190px" height="20px" viewBox="0 0 190 20" enable-background="new 0 0 190 20" xml:space="preserve">
<g>
	<polygon fill="#ED1C24" points="121.39,3.432 114.731,4.933 116.766,11.441 	"/>
	<polygon fill="#ED1C24" points="116.24,12.159 114.632,7.009 114.632,13.142 	"/>
	<polygon fill="#ED1C24" points="126.646,3.563 122.463,1.658 122.463,2.62 	"/>
	<polygon fill="#ED1C24" points="122.822,3.432 127.446,11.44 129.48,4.933 	"/>
	<polygon fill="#ED1C24" points="127.972,12.159 129.58,13.142 129.58,7.009 	"/>
	<polygon fill="#ED1C24" points="117.566,3.563 121.749,2.62 121.749,1.658 	"/>
	<polygon fill="#ED1C24" points="117.284,11.971 126.928,11.971 122.105,3.618 	"/>
	<polygon fill="#ED1C24" points="123.884,17.32 129.268,13.789 127.624,12.792 	"/>
	<polygon fill="#ED1C24" points="126.788,12.684 117.424,12.684 122.105,18.353 	"/>
	<polygon fill="#ED1C24" points="116.588,12.792 114.944,13.789 120.328,17.32 	"/>
	<path fill="#ED1C24" d="M88.364,1.451c-4.633,0-8.389,3.756-8.389,8.389s3.756,8.388,8.389,8.388c4.633,0,8.389-3.755,8.389-8.388
		S92.997,1.451,88.364,1.451 M88.364,13.914c-2.25,0-4.074-1.824-4.074-4.074s1.824-4.075,4.074-4.075s4.074,1.825,4.074,4.075
		S90.614,13.914,88.364,13.914"/>
	<path fill="#ED1C24" d="M98.266,3.635c-0.398-0.379-0.852-0.978-1.53-1.373h4.749c1.18,1.18,2.423,2.435,3.68,3.677
		c0.815,0.804,1.546,1.702,2.596,2.26c-0.02,0.022,0.012-0.005,0.031-0.038c0.02-0.031,0.037-0.069,0.037-0.104
		c0.002-1.408,0.002-2.816,0.002-4.261c-0.52-0.611-1.164-1.109-2.147-1.54h8.031c-0.676,0.618-1.568,0.756-2.035,1.637v13.677
		c-0.334,0.237-0.465-0.027-0.621-0.184c-2.647-2.642-5.288-5.291-7.942-7.927c-0.203-0.201-0.332-0.581-0.839-0.441v2.356
		c0,1.247-0.012,2.494,0.005,3.739c0.008,0.593,0.168,1.055,0.797,1.381c0.38,0.195,0.83,0.42,1.121,0.798
		c-0.022,0.028-0.041,0.063-0.069,0.084s-0.067,0.044-0.102,0.044c-2.488,0.002-4.977,0.001-7.564,0.001
		c0.338-0.283,0.575-0.539,0.864-0.71c0.319-0.19,0.685-0.304,0.941-0.411c0.503-1.403,0.379-2.744,0.384-4.074
		c0.005-1.608,0.007-3.217-0.001-4.826C98.646,6.183,98.781,4.956,98.266,3.635"/>
	<path fill="#ED1C24" d="M54.14,3.599c0.969-0.678,2.011-1.098,3.432-1.332c0.835-0.137,6.678-0.411,6.534,1.056
		c-0.132,1.348,0.229,2.836,0.302,4.174c-1.065-0.627-2.098-1.275-3.306-1.606c-1.163-0.318-2.434-0.344-3.553,0.107
		c-2.084,0.841-2.372,2.6-2.358,4.595c0.01,1.555,0.591,2.721,2.137,3.304c1.116,0.421,2.212,0.615,3.379,0.083V10.74
		c-0.512-0.583-1.279-0.894-2.039-1.475h6.597c0.092,0.091,0.177,0.177,0.345,0.345c-0.198,0.112-0.396,0.225-0.512,0.291v6.186
		c0.147,0.155,0.308,0.325,0.469,0.496c-0.183,0.145-0.303,0.321-0.581,0.37c-0.852,0.151-1.692,0.373-2.535,0.573
		c-0.106,0.026-0.204,0.131-0.305,0.13c-1.261-0.019-2.495,0.436-3.762,0.242c-1.65-0.252-3.217-0.645-4.61-1.715
		c-0.982-0.755-1.706-1.609-2.209-2.708c-0.432-0.941-0.807-1.888-0.727-2.96c0.066-0.894-0.077-1.791,0.228-2.682
		c0.22-0.642,0.969-2.343,1.415-2.794C53.048,4.465,53.582,3.989,54.14,3.599"/>
	<path fill="#ED1C24" d="M171.51,14.143c-1.163,0.318-2.434,0.344-3.553-0.107c-1.843-0.742-2.28-2.205-2.347-3.913
		c0.041-1.797,0.43-3.352,2.347-4.124c1.119-0.451,2.39-0.426,3.553-0.107c1.208,0.33,2.241,0.978,3.306,1.606
		c-0.072-1.339-0.434-2.827-0.302-4.175c0.115-1.175-2.904-1.14-3.559-1.159c-0.46-0.014-0.909-0.011-1.355,0.004
		c-0.542-0.028-1.089-0.021-1.65,0.078c-0.821,0.145-1.619,0.414-2.364,0.788c-0.355,0.169-0.7,0.359-1.026,0.581
		c-1.435,0.979-2.547,2.441-3.043,4.107c-0.221,0.746-0.309,1.521-0.292,2.295c-0.017,0.774,0.071,1.55,0.292,2.295
		c0.496,1.667,1.608,3.129,3.043,4.107c0.326,0.222,0.671,0.411,1.026,0.58c0.745,0.375,1.543,0.645,2.364,0.788
		c0.562,0.101,1.108,0.107,1.65,0.078c0.446,0.016,0.896,0.02,1.355,0.005c0.654-0.02,3.674,0.017,3.559-1.158
		c-0.132-1.349,0.229-2.836,0.302-4.176C173.751,13.163,172.718,13.812,171.51,14.143"/>
	<path fill="#ED1C24" d="M33.822,3.031h-0.013c0.381-0.239,0.748-0.583,1.177-0.731c0.09-0.031,0.181-0.055,0.271-0.081
		c-2.068-0.006-4.136-0.01-6.204-0.005c-0.221,0.001-0.481-0.115-0.685,0.143c0.095,0.162,0.006,0.346,0.09,0.554
		c0.166,0.411,0.418,0.799,0.417,1.276c-0.009,2.372,0.069,4.747-0.037,7.114c-0.048,1.069-0.215,2.258-1.753,2.74
		c-0.239,0-0.72-0.019-1.198,0.004c-0.597,0.029-1.007-0.285-1.424-0.652c-0.222-0.194-0.123-0.552-0.422-0.678V5.723
		c0-0.723,0.077-1.458-0.026-2.167c-0.071-0.487,0.566-0.826,0.154-1.347c-2.059,0-4.145,0-6.231,0.002
		c-0.034,0-0.072,0.024-0.1,0.046c-0.026,0.021-0.042,0.056-0.063,0.084c0.709,0.394,1.402,0.808,1.891,1.418
		c0.164,3.335-0.243,6.649,0.334,9.969c0.398,0.491,0.477,1.22,0.973,1.721c1.02,1.027,2.113,1.814,3.643,2.008
		c1.335,0.168,2.925,0.287,4.025-0.032c1.301-0.376,2.398-1.078,3.189-2.16c0.27-0.369,0.582-0.738,0.705-1.274
		c0.188-0.818,0.456-1.603,0.448-2.463c-0.015-1.827-0.012-3.654-0.01-5.48c0.001-0.447,0.002-0.893,0.002-1.34
		c0.001-0.38-0.097-0.81,0.159-1.111C33.328,3.367,33.564,3.182,33.822,3.031"/>
	<path fill="#ED1C24" d="M78.333,6.9c-0.361-0.546-0.952-0.585-1.25-1.045h-4.706v1.794c1.205,0.201,4.351,0.166,4.972-0.064
		c0,1.426,0,2.851,0,4.434c-0.872-0.785-1.827-0.626-2.75-0.634c-0.722-0.007-1.443-0.001-2.214-0.001v2.414
		c1.502,0,2.984,0.024,4.465-0.009c0.96-0.021,1.675-0.613,2.441-1.219c0.206,0.908-0.398,1.637-0.437,2.457
		c-0.037,0.803-0.393,1.534-0.532,2.347H66.004c0.739-0.486,1.455-0.853,1.97-1.555V3.787c-0.495-0.62-1.168-1.058-1.888-1.44
		c0.007-0.019,0.011-0.054,0.03-0.075c0.024-0.027,0.061-0.061,0.093-0.061c3.859-0.003,7.719-0.003,11.558-0.003
		c0.106,0.107,0.191,0.192,0.449,0.449c-0.004-0.003-0.069,0.217-0.096,0.395C77.938,4.284,78.501,5.464,78.333,6.9"/>
	<path fill="#ED1C24" d="M177.406,11.693c0.014-0.003,0.029-0.005,0.044-0.006c0.148-0.008,0.279,0.088,0.395,0.18
		c0.723,0.568,1.431,1.244,2.259,1.658c1.058,0.551,2.132,0.871,3.308,0.738c0.313-0.035,0.603-0.29,0.896-0.441
		c0.182-0.581,0.126-1.096-0.296-1.685c-0.39-0.26-0.94-0.668-1.562-0.728c-1.085-0.104-1.999-0.648-2.966-1.021
		c-1.376-0.531-1.622-0.888-2.29-2.229c-0.083-0.167-0.069-0.384-0.285-0.499c0-0.515-0.05-1.041,0.01-1.554
		c0.267-2.286,1.998-3.691,4.164-4.128c0.718-0.145,6.209-0.313,6.209,0.817c0,0.648-0.027,1.327,0.008,2.003
		c0.036,0.689-0.126,1.308,0.192,1.959c-1.022,0.08-2.027-0.632-2.931-1.003c-0.621-0.256-2.659-0.907-3.201-0.353
		c-0.21,0.215-0.675,0.38-0.57,1.022c0.16,0.979,2.439,1.051,3.101,1.221c1.303,0.335,2.548,0.975,3.445,1.995
		c1.749,1.983,1.528,4.829-0.409,6.598c-2.228,2.035-6.192,1.716-8.896,0.898c-1.525-0.462-0.863-3.708-0.95-4.78
		C177.058,12.087,177.154,11.743,177.406,11.693"/>
	<path fill="#ED1C24" d="M16.597,5.065c-1.57-1.922-3.646-2.9-6.165-2.86C9.265,2.225,8.098,2.23,6.931,2.203
		C5.795,2.176,4.659,2.316,3.523,1.997C3.019,1.854,2.449,1.959,2.011,1.554C1.847,1.403,1.636,1.505,1.477,1.499
		c0.035,1.338,1.049,1.969,1.814,2.776c0.348,0.367,0.757,0.683,0.95,1.477c0,2.881-0.002,6.058,0.001,9.235
		c0.001,0.696-0.182,1.204-0.891,1.573c-0.406,0.211-0.876,0.442-1.42,0.861c3.14,0,6.071-0.004,9.002,0.003
		c0.971,0.003,1.871-0.294,2.752-0.642C18.16,15.018,19.612,8.755,16.597,5.065 M12.891,12.681c-1.195,1.436-2.87,1.119-4.521,1.119
		c0-2.69,0-5.293,0-7.969c1.743,0,3.475-0.306,4.664,1.32c0.455,0.623,0.692,1.387,0.77,2.155
		C13.926,10.497,13.657,11.761,12.891,12.681"/>
	<path fill="#ED1C24" d="M39.56,2.45c0.481,0.177,0.861,0.487,1.22,0.849c1.526,1.546,3.067,3.078,4.607,4.611
		c0.159,0.159,0.28,0.408,0.693,0.296c0-1.319,0.041-2.675-0.028-4.025c-0.019-0.36-0.222-0.79-0.645-1.014
		c-0.434-0.23-0.838-0.518-1.285-0.8c0.847-0.202,6.454-0.23,7.977-0.017c-0.844,0.088-1.224,0.607-1.777,0.848
		c-0.494,0.214-0.431,0.848-0.603,1.295c-0.095,0.246-0.017,0.557-0.017,0.839v11.346v1.162c-2.928-3.228-6.15-5.849-9.018-8.837
		c-0.044,0.158,0.053-0.065-0.085,0.017c-0.031,0.019-0.07,0.059-0.07,0.09c-0.003,2.251-0.003,4.502-0.003,6.719
		c0.53,0.672,1.235,1.064,2.004,1.539h-7.798c0.223-0.437,0.687-0.445,0.991-0.676c0.314-0.237,0.603-0.507,0.911-0.771V4.032
		c-0.165-0.579-0.665-0.966-1.179-1.341c0.565-0.521,1.245-0.167,1.867-0.225C38.062,2.397,38.813,2.45,39.56,2.45"/>
	<path fill="#ED1C24" d="M152.006,16.71c-0.318-0.189-0.684-0.302-0.94-0.41c-0.503-1.402-0.379-2.744-0.385-4.073
		c-0.005-1.609-0.007-3.218,0.001-4.827c0.008-1.216-0.129-2.444,0.388-3.765c0.397-0.379,0.851-0.977,1.529-1.373h-4.749
		c-1.18,1.18-2.423,2.436-3.68,3.677l-2.641,2.222l-3.873-3.502v0.039c-0.828-0.827-1.647-1.649-2.435-2.436h-4.749
		c0.68,0.396,1.133,0.994,1.53,1.373c0.517,1.321,0.38,2.549,0.387,3.765c0.009,1.609,0.007,3.218,0.001,4.827
		c-0.005,1.329,0.119,2.671-0.384,4.073c-0.257,0.108-0.622,0.221-0.94,0.41c-0.289,0.173-0.528,0.429-0.865,0.712
		c2.588,0,5.077,0,7.564-0.003c0.034,0,0.073-0.021,0.102-0.044c0.029-0.021,0.047-0.055,0.07-0.083
		c-0.291-0.379-0.741-0.603-1.121-0.799c-0.629-0.325-0.789-0.788-0.797-1.38c-0.018-1.246-0.006-2.493-0.006-3.74V9.018
		c0.508-0.14,0.637,0.24,0.84,0.442c0.268,0.266,0.534,0.524,0.803,0.784v0.014l4.017,3.875c1.56-1.56,2.982-3.119,4.546-4.672
		c0.203-0.202,0.332-0.582,0.839-0.442v2.355c0,1.247,0.013,2.494-0.005,3.74c-0.008,0.592-0.168,1.055-0.797,1.38
		c-0.38,0.196-0.83,0.42-1.121,0.799c0.023,0.028,0.041,0.063,0.07,0.083c0.028,0.022,0.067,0.044,0.101,0.044
		c2.488,0.003,4.978,0.003,7.565,0.003C152.534,17.139,152.295,16.883,152.006,16.71"/>
	<path fill="#ED1C24" d="M159.188,15.784V3.893c0.467-0.882,1.36-1.02,2.035-1.637h-2.035H158.6h-5.408
		c0.984,0.43,1.628,0.928,2.146,1.54c0,1.023,0,2.026,0,3.026v6.032v0.001c0,0.999,0,2.002,0,3.025
		c-0.519,0.611-1.162,1.109-2.146,1.54h5.408h0.588h2.035C160.548,16.804,159.654,16.665,159.188,15.784"/>
</g>
</svg>
